<svg xmlns="http://www.w3.org/2000/svg" font-family="Segoe UI, Helvetica, Arial, sans-serif" viewBox="0 0 1680 1240"><defs><marker id="a" markerHeight="7" markerWidth="7" orient="auto-start-reverse" refX="8" refY="5" viewBox="0 0 10 10"><path fill="#3B3B3B" d="M0,0 L10,5 L0,10 z"/></marker><marker id="ao" markerHeight="7" markerWidth="7" orient="auto-start-reverse" refX="8" refY="5" viewBox="0 0 10 10"><path fill="#ED7100" d="M0,0 L10,5 L0,10 z"/></marker><marker id="ar" markerHeight="7" markerWidth="7" orient="auto-start-reverse" refX="8" refY="5" viewBox="0 0 10 10"><path fill="#DD344C" d="M0,0 L10,5 L0,10 z"/></marker></defs><rect width="1680" height="1240" x="0" y="0" fill="#FFF"/><defs><g id="icon-ec2"><rect width="32" height="32" x="6" y="6" fill="none" stroke="#fff" stroke-width="2.4" rx="4"/><rect width="16" height="16" x="14" y="14" fill="#fff" rx="1.5"/><line x1="0" x2="6" y1="12" y2="12" stroke="#fff" stroke-width="2.2"/><line x1="0" x2="6" y1="20" y2="20" stroke="#fff" stroke-width="2.2"/><line x1="0" x2="6" y1="28" y2="28" stroke="#fff" stroke-width="2.2"/><line x1="38" x2="44" y1="12" y2="12" stroke="#fff" stroke-width="2.2"/><line x1="38" x2="44" y1="20" y2="20" stroke="#fff" stroke-width="2.2"/><line x1="38" x2="44" y1="28" y2="28" stroke="#fff" stroke-width="2.2"/></g><g id="icon-ecr"><rect width="16" height="16" x="4" y="16" fill="none" stroke="#fff" stroke-width="2.2" rx="2"/><rect width="16" height="16" x="14" y="10" fill="none" stroke="#fff" stroke-width="2.2" rx="2"/><rect width="16" height="16" x="24" y="16" fill="#fff" rx="2"/></g><g id="icon-s3"><path fill="none" stroke="#fff" stroke-width="2.4" d="M8,10 L36,10 L36,34 Q22,39 8,34 Z"/><path fill="none" stroke="#fff" stroke-width="2.4" d="M8,10 Q22,15 36,10"/><path fill="none" stroke="#fff" stroke-width="1.6" d="M8,20 Q22,25 36,20" opacity=".7"/></g><g id="icon-iam"><circle cx="16" cy="16" r="9" fill="none" stroke="#fff" stroke-width="2.4"/><circle cx="16" cy="16" r="3.4" fill="#fff"/><line x1="22" x2="38" y1="22" y2="38" stroke="#fff" stroke-width="2.6"/><line x1="30" x2="34" y1="30" y2="26" stroke="#fff" stroke-width="2.6"/><line x1="34" x2="38" y1="34" y2="30" stroke="#fff" stroke-width="2.6"/></g><g id="icon-kms"><rect width="24" height="18" x="12" y="20" fill="none" stroke="#fff" stroke-width="2.4" rx="3"/><path fill="none" stroke="#fff" stroke-width="2.4" d="M17,20 L17,13 A7,7 0 0 1 31,13 L31,20"/><circle cx="24" cy="29" r="2.6" fill="#fff"/></g><g id="icon-ssm"><rect width="32" height="26" x="6" y="8" fill="none" stroke="#fff" stroke-width="2.4" rx="3"/><line x1="12" x2="26" y1="16" y2="16" stroke="#fff" stroke-width="2.2"/><line x1="12" x2="30" y1="22" y2="22" stroke="#fff" stroke-width="2.2"/><line x1="12" x2="22" y1="28" y2="28" stroke="#fff" stroke-width="2.2"/><path fill="#fff" d="M18,40 L30,40 L24,34 Z"/></g><g id="icon-cloudtrail"><ellipse cx="22" cy="22" fill="none" stroke="#fff" stroke-width="2.4" rx="18" ry="11"/><circle cx="22" cy="22" r="5.4" fill="#fff"/></g><g id="icon-cloudwatch"><circle cx="22" cy="22" r="17" fill="none" stroke="#fff" stroke-width="2.2"/><polyline fill="none" stroke="#fff" stroke-linecap="round" stroke-linejoin="round" stroke-width="2.4" points="10 26 16 16 22 28 28 14 34 22"/></g><g id="icon-vpc"><rect width="32" height="32" x="6" y="6" fill="none" stroke="#fff" stroke-width="2.2" rx="5"/><circle cx="12" cy="12" r="2.6" fill="#fff"/><circle cx="32" cy="12" r="2.6" fill="#fff"/><circle cx="12" cy="32" r="2.6" fill="#fff"/><circle cx="32" cy="32" r="2.6" fill="#fff"/><line x1="12" x2="32" y1="12" y2="32" stroke="#fff" stroke-width="1.6"/><line x1="32" x2="12" y1="12" y2="32" stroke="#fff" stroke-width="1.6"/></g><g id="icon-docker"><rect width="9" height="9" x="4" y="16" fill="#fff"/><rect width="9" height="9" x="15" y="16" fill="#fff"/><rect width="9" height="9" x="26" y="16" fill="#fff"/><rect width="9" height="9" x="15" y="5" fill="#fff"/><path fill="#fff" d="M2,27 Q22,40 44,27 Q40,34 30,34 L14,34 Q4,34 2,27 Z"/></g></defs><text x="24" y="34" fill="#16191F" font-size="22" font-weight="700">Retail Demand Forecasting — Cloud Deployment Architecture</text><text x="24" y="56" fill="#5C6670" font-size="12.5">Push to GitHub main → GitHub Actions (OIDC) → AWS · EC2 running Docker Compose, no SSH, no stored credentials</text><rect width="150" height="340" x="10" y="330" fill="none" stroke="#232F3E" stroke-dasharray="3 3" stroke-width="1.2"/><circle cx="85" cy="400" r="24" fill="none" stroke="#0972D3" stroke-width="2.2"/><circle cx="85" cy="392" r="8" fill="none" stroke="#0972D3" stroke-width="2.6"/><path fill="none" stroke="#0972D3" stroke-linecap="round" stroke-width="2.6" d="M69,417 Q69,401 85,401 Q101,401 101,417"/><text x="85" y="448" fill="#16191F" font-size="12" font-weight="600" text-anchor="middle">Developer</text><text x="85" y="463" fill="#5C6670" font-size="9.5" text-anchor="middle">git push main</text><circle cx="85" cy="500" r="24" fill="none" stroke="#5C6670" stroke-width="2.2"/><path fill="none" stroke="#5C6670" stroke-linecap="round" stroke-width="2.6" d="M85,488 A12,12 0 1 1 73,500"/><path fill="none" stroke="#5C6670" stroke-linecap="round" stroke-linejoin="round" stroke-width="2.6" d="M85,488 L91,484 M85,488 L91,492"/><text x="85" y="548" fill="#16191F" font-size="12" font-weight="600" text-anchor="middle">GitHub Actions</text><text x="85" y="563" fill="#5C6670" font-size="9.5" text-anchor="middle">CI/CD runner</text><circle cx="85" cy="600" r="24" fill="none" stroke="#0972D3" stroke-width="2.2"/><circle cx="85" cy="592" r="8" fill="none" stroke="#0972D3" stroke-width="2.6"/><path fill="none" stroke="#0972D3" stroke-linecap="round" stroke-width="2.6" d="M69,617 Q69,601 85,601 Q101,601 101,617"/><text x="85" y="648" fill="#16191F" font-size="12" font-weight="600" text-anchor="middle">Judge / Public</text><text x="85" y="663" fill="#5C6670" font-size="9.5" text-anchor="middle">browser, port 8080</text><circle cx="210" cy="500" r="26" fill="#F2F4F4" stroke="#8C4FFF" stroke-width="2.2"/><use width="44" height="44" x="188" y="478" color="#8C4FFF" href="#icon-vpc"/><text x="210" y="540" fill="#16191F" font-size="10.5" font-weight="600" text-anchor="middle">Internet</text><line x1="160" x2="196" y1="400" y2="486" stroke="#232F3E" stroke-width="1.3" marker-end="url(#a)"/><line x1="160" x2="184" y1="500" y2="500" stroke="#232F3E" stroke-width="1.3" marker-end="url(#a)"/><line x1="160" x2="196" y1="600" y2="514" stroke="#232F3E" stroke-width="1.3" marker-end="url(#a)"/><rect width="1180" height="1140" x="264" y="70" fill="none" stroke="#248814" stroke-width="1.6"/><rect width="26" height="26" x="264" y="70" fill="#248814"/><path fill="none" stroke="#fff" stroke-width="1.4" d="M270,90 a6,6 0 1 1 0.1,0 M275,86 a8,8 0 1 1 0.1,0" transform="translate(0,-4) scale(0.9)"/><text x="300" y="88" fill="#5C6670" font-size="12" font-weight="600">AWS Cloud · VPC (default) · us-east-1</text><line x1="236" x2="264" y1="500" y2="500" stroke="#232F3E" stroke-width="1.3" marker-end="url(#a)"/><rect width="880" height="900" x="284" y="106" fill="none" stroke="#0972D3" stroke-dasharray="4 3" stroke-width="1.3"/><text x="296" y="98" fill="#0972D3" font-size="11.5" font-weight="700">DEPLOY-TIME MANAGED RESOURCES</text><rect width="270" height="120" x="312" y="140" fill="#FFF" stroke="#232F3E" stroke-dasharray="3 2" stroke-width="1.3" rx="4"/><text x="447" y="158" fill="#16191F" font-size="11.5" font-weight="700" text-anchor="middle">Identity Federation Module</text><rect width="76" height="76" x="410" y="176" fill="#DD344C" rx="10"/><use width="44" height="44" x="426" y="192" href="#icon-iam"/><text x="447" y="270" fill="#16191F" font-size="11" text-anchor="middle">AWS IAM · OIDC Provider</text><path fill="none" stroke="#5C6670" stroke-dasharray="5 3" stroke-width="1.6" marker-end="url(#ar)" d="M109,492 C 170,450 230,240 312,204"/><text x="150" y="330" fill="#5C6670" font-size="9.5">OIDC: short-lived token</text><rect width="270" height="120" x="612" y="140" fill="#FFF" stroke="#232F3E" stroke-dasharray="3 2" stroke-width="1.3" rx="4"/><text x="747" y="158" fill="#16191F" font-size="11.5" font-weight="700" text-anchor="middle">Registry Module</text><rect width="76" height="76" x="710" y="176" fill="#ED7100" rx="10"/><use width="40" height="40" x="728" y="196" href="#icon-ecr"/><text x="747" y="270" fill="#16191F" font-size="11" text-anchor="middle">Amazon ECR · npn-api / npn-frontend</text><line x1="582" x2="612" y1="196" y2="196" stroke="#232F3E" stroke-width="1.4" marker-end="url(#a)"/><text x="597" y="188" fill="#5C6670" font-size="8.6" text-anchor="middle">assume role</text><text x="597" y="216" fill="#5C6670" font-size="8.6" text-anchor="middle">publish</text><path fill="none" stroke="#DD344C" stroke-dasharray="5 3" stroke-width="1.6" marker-end="url(#ar)" d="M486,220 C 700,220 850,250 890,290"/><text x="620" y="216" fill="#5C6670" font-size="8.6">assume role → deploy (SSM)</text><rect width="820" height="440" x="312" y="300" fill="#EAF4EC" stroke="#248814" stroke-width="1.4"/><rect width="18" height="18" x="322" y="292" fill="#248814"/><text x="348" y="306" fill="#16191F" font-size="11.5" font-weight="700">Security Group · inbound tcp/8080 ONLY · port 22 closed</text><rect width="248" height="26" x="880" y="290" fill="#FCE9E9" stroke="#DD344C" stroke-width="1.2" rx="13"/><text x="1004" y="307" fill="#DD344C" font-size="9" font-weight="600" text-anchor="middle">reached only via SSM RunCommand</text><rect width="248" height="150" x="336" y="334" fill="#FFF" stroke="#ED7100" stroke-width="1.6" rx="6"/><text x="460" y="354" fill="#16191F" font-size="11.5" font-weight="700" text-anchor="middle">Amazon EC2 · t3.medium</text><rect width="72" height="72" x="424" y="366" fill="#ED7100" rx="10"/><use width="40" height="40" x="440" y="384" href="#icon-ec2"/><text x="460" y="456" fill="#5C6670" font-size="10" text-anchor="middle">Elastic IP · persists across stop/start</text><text x="460" y="470" fill="#5C6670" font-size="10" text-anchor="middle">SSM Agent only, no SSH daemon exposed</text><rect width="500" height="290" x="612" y="330" fill="#EAF1FB" stroke="#0972D3" stroke-width="1.4"/><rect width="18" height="18" x="622" y="322" fill="#0972D3"/><text x="648" y="336" fill="#16191F" font-size="11.5" font-weight="700">Docker Compose · the running stack</text><rect width="216" height="120" x="632" y="356" fill="#FFF" stroke="#232F3E" stroke-width="1.3" rx="6"/><text x="740" y="374" fill="#16191F" font-size="11" font-weight="700" text-anchor="middle">frontend · nginx</text><rect width="72" height="72" x="704" y="384" fill="#ED7100" rx="10"/><use width="36" height="36" x="722" y="402" href="#icon-docker"/><text x="740" y="468" fill="#5C6670" font-size="9.5" text-anchor="middle">published :8080 · read-only root</text><line x1="848" x2="892" y1="416" y2="416" stroke="#232F3E" stroke-width="1.4" marker-end="url(#a)"/><text x="870" y="406" fill="#5C6670" font-size="8.8" text-anchor="middle">/api/</text><rect width="196" height="120" x="896" y="356" fill="#FFF" stroke="#232F3E" stroke-width="1.3" rx="6"/><text x="994" y="374" fill="#16191F" font-size="11" font-weight="700" text-anchor="middle">api · uvicorn</text><rect width="72" height="72" x="958" y="384" fill="#ED7100" rx="10"/><use width="36" height="36" x="976" y="402" href="#icon-docker"/><text x="994" y="468" fill="#5C6670" font-size="9.5" text-anchor="middle">internal :8000, never published</text><rect width="460" height="100" x="632" y="500" fill="#F1F6E6" stroke="#7AA116" stroke-width="1.6" rx="6"/><text x="862" y="518" fill="#16191F" font-size="11" font-weight="700" text-anchor="middle">/opt/npn/backend/data · EBS volume, read-only</text><text x="862" y="536" fill="#5C6670" font-size="9.5" text-anchor="middle">product.duckdb 20 MB · history.parquet 32 MB · backtest.parquet 78 MB</text><rect width="52" height="52" x="800" y="546" fill="#7AA116" rx="8"/><use width="32" height="32" x="810" y="556" href="#icon-s3"/><line x1="740" x2="740" y1="476" y2="500" stroke="#232F3E" stroke-width="1.3" marker-end="url(#a)"/><line x1="994" x2="994" y1="476" y2="500" stroke="#232F3E" stroke-width="1.3" marker-end="url(#a)"/><rect width="776" height="70" x="336" y="640" fill="#F2F4F4" stroke="#5C6670" stroke-dasharray="3 2" stroke-width="1.2" rx="6"/><text x="356" y="666" fill="#16191F" font-size="11" font-weight="600">/api/v1/ready</text><text x="356" y="684" fill="#5C6670" font-size="9.5">frontend does not route traffic until this reports the data layer is queryable — not just &quot;process alive&quot;</text><rect width="360" height="900" x="1184" y="106" fill="none" stroke="#8C8C8C" stroke-dasharray="3 3" stroke-width="1.2"/><text x="1364" y="98" fill="#5C6670" font-size="11.5" font-weight="700" text-anchor="middle">SUPPORTING AWS SERVICES</text><g fill="#16191F" font-size="11" text-anchor="middle"><rect width="76" height="76" x="1210" y="140" fill="#DD344C" rx="10"/><use width="44" height="44" x="1225" y="156" href="#icon-iam"/><text x="1248" y="234">AWS IAM</text><rect width="76" height="76" x="1310" y="140" fill="#DD344C" rx="10"/><use width="44" height="44" x="1326" y="156" href="#icon-kms"/><text x="1348" y="234">AWS KMS</text><rect width="76" height="76" x="1410" y="140" fill="#E7157B" rx="10"/><use width="44" height="44" x="1426" y="156" href="#icon-ssm"/><text x="1448" y="234">Systems</text><text x="1448" y="248">Manager</text><rect width="76" height="76" x="1210" y="290" fill="#ED7100" rx="10"/><use width="44" height="44" x="1226" y="308" href="#icon-ecr"/><text x="1248" y="384">Amazon ECR</text><rect width="76" height="76" x="1310" y="290" fill="#7AA116" rx="10"/><use width="44" height="44" x="1326" y="306" href="#icon-s3"/><text x="1348" y="384">Amazon S3</text><rect width="76" height="76" x="1410" y="290" fill="#ED7100" rx="10"/><use width="44" height="44" x="1424" y="306" href="#icon-ec2"/><text x="1448" y="384">Amazon EC2</text><rect width="76" height="76" x="1210" y="440" fill="#E7157B" rx="10"/><use width="44" height="44" x="1226" y="456" href="#icon-cloudtrail"/><text x="1248" y="534">CloudTrail</text><rect width="76" height="76" x="1310" y="440" fill="#E7157B" rx="10"/><use width="44" height="44" x="1326" y="456" href="#icon-cloudwatch"/><text x="1348" y="534">CloudWatch</text><rect width="76" height="76" x="1410" y="440" fill="#8C4FFF" rx="10"/><use width="44" height="44" x="1426" y="456" href="#icon-vpc"/><text x="1448" y="534">VPC / SG</text></g><text x="1210" y="600" fill="#5C6670" font-size="10.5" font-weight="700">WHY EACH ONE IS HERE</text><line x1="1210" x2="1544" y1="610" y2="610" stroke="#DADFE3" stroke-width="1"/><text x="1210" y="632" fill="#16191F" font-size="9.5">IAM / KMS — OIDC trust + SecureString encryption</text><text x="1210" y="652" fill="#16191F" font-size="9.5">Systems Manager — command channel; port 22 stays closed</text><text x="1210" y="672" fill="#16191F" font-size="9.5">ECR — image registry, tagged by commit sha</text><text x="1210" y="692" fill="#16191F" font-size="9.5">S3 — one-time data sync, not a runtime dependency</text><text x="1210" y="712" fill="#16191F" font-size="9.5">CloudTrail / CloudWatch — every API call &amp; log, auditable</text><text x="1210" y="732" fill="#16191F" font-size="9.5">EC2 — the one always-on compute instance</text><rect width="900" height="170" x="24" y="1030" fill="none" stroke="#5C6670" stroke-dasharray="4 3" stroke-width="1.3"/><text x="40" y="1022" fill="#5C6670" font-size="11.5" font-weight="700">EXTERNAL · NOT AWS-MANAGED</text><rect width="360" height="110" x="56" y="1058" fill="#FFF" stroke="#232F3E" stroke-width="1.3" rx="6"/><text x="236" y="1078" fill="#16191F" font-size="11.5" font-weight="700" text-anchor="middle">GitHub · source of truth</text><circle cx="120" cy="1120" r="28" fill="none" stroke="#5C6670" stroke-width="2.2"/><path fill="none" stroke="#5C6670" stroke-linecap="round" stroke-width="2.6" d="M120,1106 A14,14 0 1 1 106,1120"/><path fill="none" stroke="#5C6670" stroke-linecap="round" stroke-linejoin="round" stroke-width="2.6" d="M120,1106 L127,1101 M120,1106 L127,1111"/><text x="236" y="1108" fill="#5C6670" font-size="10" text-anchor="middle">main branch, protected</text><text x="236" y="1126" fill="#5C6670" font-size="10" text-anchor="middle">Actions workflow: ci.yml</text><text x="236" y="1144" fill="#5C6670" font-size="10" text-anchor="middle">no AWS key stored here, ever</text><rect width="440" height="110" x="460" y="1058" fill="#FFF" stroke="#232F3E" stroke-width="1.3" rx="6"/><text x="680" y="1078" fill="#16191F" font-size="11.5" font-weight="700" text-anchor="middle">What never leaves this box</text><text x="480" y="1102" fill="#5C6670" font-size="9.8">• long-lived AWS access keys</text><text x="480" y="1120" fill="#5C6670" font-size="9.8">• the Gemini API key (fetched at deploy time, not stored here)</text><text x="480" y="1138" fill="#5C6670" font-size="9.8">• any SSH private key — none exists for this box</text><text x="480" y="1156" fill="#5C6670" font-size="9.8">• the 130 MB data layer — synced once, outside the deploy path</text><line x1="24" x2="1544" y1="1216" y2="1216" stroke="#DADFE3" stroke-width="1"/><text x="24" y="1232" fill="#5C6670" font-size="10">Every deploy re-checks the frozen forecast canary (total_28d = 3331.3681) against the live public IP before it&apos;s called successful.</text></svg>